<svg xmlns="http://www.w3.org/2000/svg" width="665.978" height="216.04" viewBox="0 0 665.978 216.04">
  <g id="apple_store_white" transform="translate(-4.931 -4.942)">
    <g id="Group_54" data-name="Group 54" transform="translate(0 0)">
      <g id="Group_52" data-name="Group 52">
        <path id="Path_109" data-name="Path 109" d="M43.637,216.9c-1.721,0-3.4-.022-5.107-.06a71.658,71.658,0,0,1-10.557-.921,33.231,33.231,0,0,1-9.357-3.094,30.53,30.53,0,0,1-7.89-5.742A30.051,30.051,0,0,1,4.963,199.2a32.316,32.316,0,0,1-3.067-9.36,70.108,70.108,0,0,1-.94-10.59c-.036-1.191-.083-5.157-.083-5.157V43.625s.05-3.9.083-5.052A69.865,69.865,0,0,1,1.891,28,32.506,32.506,0,0,1,4.96,18.613a30.348,30.348,0,0,1,5.733-7.9,31.432,31.432,0,0,1,7.92-5.775,32.888,32.888,0,0,1,9.338-3.072A71.082,71.082,0,0,1,38.544.944l5.1-.069H624.057l5.157.072a69.948,69.948,0,0,1,10.5.918,33.539,33.539,0,0,1,9.437,3.094,31.592,31.592,0,0,1,13.639,13.667,32.546,32.546,0,0,1,3.023,9.313A73.39,73.39,0,0,1,666.79,38.6c.016,1.6.016,3.318.016,5.027.045,2.118.045,4.134.045,6.166v118.2c0,2.052,0,4.054-.045,6.073,0,1.837,0,3.519-.022,5.251a71.918,71.918,0,0,1-.965,10.468,32.412,32.412,0,0,1-3.05,9.432,30.951,30.951,0,0,1-5.736,7.826,30.571,30.571,0,0,1-7.9,5.775,33.106,33.106,0,0,1-9.42,3.105,70.836,70.836,0,0,1-10.557.921c-1.654.038-3.386.06-5.068.06l-6.122.011Z" transform="translate(4.058 4.068)" fill="#fff"/>
      </g>
      <g id="_Group_" data-name="&lt;Group&gt;" transform="translate(54.27 44.319)">
        <g id="_Group_2" data-name="&lt;Group&gt;">
          <g id="_Group_3" data-name="&lt;Group&gt;">
            <path id="_Path_" data-name="&lt;Path&gt;" d="M96.515,50.472a29.065,29.065,0,0,1,13.84-24.386A29.751,29.751,0,0,0,86.915,13.415c-9.862-1.035-19.424,5.9-24.449,5.9-5.123,0-12.861-5.8-21.193-5.627A31.217,31.217,0,0,0,15,29.71C3.644,49.376,12.117,78.278,23,94.174c5.444,7.784,11.806,16.479,20.131,16.17,8.146-.338,11.189-5.195,21.022-5.195,9.742,0,12.6,5.195,21.09,5,8.742-.142,14.249-7.819,19.5-15.676a64.381,64.381,0,0,0,8.918-18.163A28.086,28.086,0,0,1,96.515,50.472Z" transform="translate(-9.609 17.541)"/>
            <path id="_Path_2" data-name="&lt;Path&gt;" d="M37.847,28.348a28.617,28.617,0,0,0,6.546-20.5,29.116,29.116,0,0,0-18.839,9.747,27.23,27.23,0,0,0-6.717,19.742A24.074,24.074,0,0,0,37.847,28.348Z" transform="translate(33.016 -7.847)"/>
          </g>
        </g>
        <g id="Group_53" data-name="Group 53" transform="translate(140.166 56.614)">
          <path id="Path_110" data-name="Path 110" d="M78.9,69.256H52.17L45.75,88.213H34.427L59.748,18.078H71.512L96.834,88.213H85.317ZM54.939,60.508H76.129L65.683,29.743H65.39Z" transform="translate(-34.427 -16.908)"/>
          <path id="Path_111" data-name="Path 111" d="M94.8,47.46c0,15.89-8.5,26.1-21.339,26.1A17.335,17.335,0,0,1,57.37,64.613h-.243V89.94h-10.5V21.89H56.79v8.5h.193a18.139,18.139,0,0,1,16.282-9.04C86.243,21.356,94.8,31.614,94.8,47.46Zm-10.788,0c0-10.352-5.35-17.159-13.513-17.159-8.019,0-13.414,6.949-13.414,17.159,0,10.3,5.394,17.2,13.414,17.2,8.163,0,13.513-6.756,13.513-17.2Z" transform="translate(22.295 -1.72)"/>
          <path id="Path_112" data-name="Path 112" d="M104.765,47.46c0,15.89-8.508,26.1-21.342,26.1a17.335,17.335,0,0,1-16.089-8.946h-.243V89.94H56.6V21.89H66.755v8.5h.193a18.138,18.138,0,0,1,16.282-9.04C96.208,21.356,104.765,31.614,104.765,47.46Zm-10.791,0c0-10.352-5.35-17.159-13.513-17.159-8.019,0-13.414,6.949-13.414,17.159,0,10.3,5.394,17.2,13.414,17.2,8.163,0,13.513-6.756,13.513-17.2Z" transform="translate(68.61 -1.72)"/>
          <path id="Path_113" data-name="Path 113" d="M80.551,69.634c.778,6.955,7.534,11.521,16.767,11.521,8.847,0,15.212-4.567,15.212-10.838,0-5.444-3.839-8.7-12.928-10.937l-9.089-2.19C77.634,54.08,71.655,48.057,71.655,38.284c0-12.1,10.546-20.413,25.514-20.413,14.825,0,24.985,8.312,25.327,20.413H111.9c-.634-7-6.42-11.224-14.875-11.224s-14.241,4.274-14.241,10.5c0,4.958,3.7,7.876,12.735,10.11l7.727,1.9c14.39,3.4,20.363,9.183,20.363,19.442,0,13.121-10.446,21.339-27.07,21.339-15.554,0-26.055-8.025-26.733-20.71Z" transform="translate(130.014 -17.871)"/>
          <path id="Path_114" data-name="Path 114" d="M98.143,19.3V31.4h9.724v8.312H98.143V67.9c0,4.379,1.947,6.42,6.221,6.42a32.8,32.8,0,0,0,3.453-.243v8.262a28.823,28.823,0,0,1-5.83.485c-10.352,0-14.39-3.888-14.39-13.805V39.713H80.163V31.4H87.6V19.3Z" transform="translate(178.144 -11.23)"/>
          <path id="Path_115" data-name="Path 115" d="M86.064,47.529c0-16.088,9.475-26.2,24.251-26.2,14.826,0,24.257,10.11,24.257,26.2,0,16.133-9.382,26.2-24.257,26.2S86.064,63.662,86.064,47.529Zm37.814,0c0-11.036-5.058-17.55-13.562-17.55s-13.562,6.563-13.562,17.55c0,11.08,5.058,17.545,13.562,17.545s13.562-6.464,13.562-17.545Z" transform="translate(205.573 -1.79)"/>
          <path id="Path_116" data-name="Path 116" d="M96.185,21.89H106.2v8.7h.243a12.2,12.2,0,0,1,12.3-9.238,16.188,16.188,0,0,1,3.6.392v9.817a14.673,14.673,0,0,0-4.716-.634,10.576,10.576,0,0,0-10.937,11.764V73.024h-10.5Z" transform="translate(252.613 -1.72)"/>
          <path id="Path_117" data-name="Path 117" d="M147.341,58.075c-1.412,9.282-10.452,15.653-22.018,15.653-14.875,0-24.108-9.966-24.108-25.956,0-16.039,9.282-26.441,23.667-26.441,14.147,0,23.043,9.718,23.043,25.222v3.6H111.811v.634a13.318,13.318,0,0,0,13.755,14.483,11.569,11.569,0,0,0,11.809-7.192ZM111.861,42.814h25.564a12.3,12.3,0,0,0-12.542-12.978,12.945,12.945,0,0,0-13.021,12.978Z" transform="translate(275.996 -1.789)"/>
        </g>
      </g>
    </g>
    <g id="_Group_4" data-name="&lt;Group&gt;" transform="translate(201.462 47.651)">
      <g id="Group_55" data-name="Group 55">
        <path id="Path_118" data-name="Path 118" d="M47.844,8.763A14.908,14.908,0,0,1,63.7,25.507c0,10.766-5.819,16.955-15.857,16.955H35.671V8.763ZM40.905,37.7h6.354a10.595,10.595,0,0,0,11.114-12.12A10.623,10.623,0,0,0,47.259,13.525H40.905Z" transform="translate(-35.671 -7.102)"/>
        <path id="Path_119" data-name="Path 119" d="M41.728,23.3a12.048,12.048,0,1,1,23.987,0,12.05,12.05,0,1,1-23.987,0Zm18.824,0c0-5.513-2.476-8.736-6.823-8.736-4.363,0-6.817,3.224-6.817,8.736,0,5.557,2.454,8.756,6.817,8.756C58.075,32.059,60.552,28.838,60.552,23.3Z" transform="translate(-7.785 -0.671)"/>
        <path id="Path_120" data-name="Path 120" d="M74.83,35.627H69.624L64.368,16.9h-.4l-5.234,18.73H53.579l-7.01-25.432H51.66L56.216,29.6h.375L61.82,10.195h4.815L71.863,29.6h.4l4.534-19.406h5.019Z" transform="translate(14.983 -0.267)"/>
        <path id="Path_121" data-name="Path 121" d="M53.854,10.62h4.832v4.04h.375a7.613,7.613,0,0,1,7.589-4.531,8.272,8.272,0,0,1,8.8,9.459V36.051H70.433v-15.2c0-4.087-1.776-6.119-5.488-6.119a5.834,5.834,0,0,0-6.073,6.445V36.051H53.854Z" transform="translate(48.838 -0.692)"/>
        <path id="Path_122" data-name="Path 122" d="M59.094,8.437h5.019V43.8H59.094Z" transform="translate(73.194 -8.437)"/>
        <path id="Path_123" data-name="Path 123" d="M61.264,23.3a12.049,12.049,0,1,1,23.989,0,12.051,12.051,0,1,1-23.989,0Zm18.824,0c0-5.513-2.476-8.736-6.823-8.736-4.363,0-6.817,3.224-6.817,8.736,0,5.557,2.454,8.756,6.817,8.756C77.612,32.059,80.089,28.838,80.089,23.3Z" transform="translate(83.019 -0.671)"/>
        <path id="Path_124" data-name="Path 124" d="M66.4,28.838c0-4.578,3.409-7.217,9.459-7.592l6.889-.4v-2.2c0-2.686-1.776-4.2-5.207-4.2-2.8,0-4.743,1.029-5.3,2.827H67.383c.513-4.368,4.622-7.17,10.391-7.17,6.376,0,9.972,3.174,9.972,8.546V36.03H82.914V32.456h-.4a8.556,8.556,0,0,1-7.639,3.993A7.682,7.682,0,0,1,66.4,28.838Zm16.348-2.173V24.539l-6.21.4c-3.5.234-5.091,1.426-5.091,3.668,0,2.289,1.986,3.621,4.716,3.621a6,6,0,0,0,6.585-5.56Z" transform="translate(107.156 -0.671)"/>
        <path id="Path_125" data-name="Path 125" d="M71.348,31.069c0-8.036,4.131-13.127,10.557-13.127A8.381,8.381,0,0,1,89.7,22.4h.375V8.437H95.1V43.8H90.288V39.778h-.4A8.827,8.827,0,0,1,81.9,44.216C75.435,44.216,71.348,39.125,71.348,31.069Zm5.185,0c0,5.394,2.543,8.64,6.8,8.64,4.23,0,6.845-3.293,6.845-8.618,0-5.3-2.642-8.64-6.845-8.64-4.225,0-6.8,3.268-6.8,8.618Z" transform="translate(130.15 -8.437)"/>
        <path id="Path_126" data-name="Path 126" d="M79.277,23.3a12.048,12.048,0,1,1,23.987,0,12.05,12.05,0,1,1-23.987,0Zm18.824,0c0-5.513-2.476-8.736-6.823-8.736-4.363,0-6.817,3.224-6.817,8.736,0,5.557,2.454,8.756,6.817,8.756C95.624,32.059,98.1,28.838,98.1,23.3Z" transform="translate(166.736 -0.671)"/>
        <path id="Path_127" data-name="Path 127" d="M84.669,10.62H89.5v4.04h.375a7.613,7.613,0,0,1,7.589-4.531,8.271,8.271,0,0,1,8.8,9.459V36.051h-5.019v-15.2c0-4.087-1.776-6.119-5.488-6.119a5.834,5.834,0,0,0-6.072,6.445V36.051H84.67Z" transform="translate(192.064 -0.692)"/>
        <path id="Path_128" data-name="Path 128" d="M100.973,9.074v6.448h5.51v4.228h-5.51V32.826c0,2.664,1.1,3.83,3.6,3.83a16.753,16.753,0,0,0,1.914-.116v4.181a16.465,16.465,0,0,1-2.73.256c-5.582,0-7.8-1.964-7.8-6.867V19.749H91.911V15.521h4.037V9.074Z" transform="translate(225.72 -5.478)"/>
        <path id="Path_129" data-name="Path 129" d="M95.7,8.437h4.975V22.452h.4a7.826,7.826,0,0,1,7.754-4.556,8.378,8.378,0,0,1,8.759,9.481V43.8h-5.024V28.615c0-4.062-1.892-6.119-5.438-6.119a5.941,5.941,0,0,0-6.4,6.448V43.8H95.7Z" transform="translate(243.354 -8.437)"/>
        <path id="Path_130" data-name="Path 130" d="M123.586,29.164a10.324,10.324,0,0,1-11.02,7.358,11.552,11.552,0,0,1-11.746-13.126,11.73,11.73,0,0,1,11.726-13.287c7.076,0,11.345,4.835,11.345,12.821V24.68H105.932v.281a6.722,6.722,0,0,0,6.773,7.286,6.1,6.1,0,0,0,6.05-3.083Zm-17.655-8.2h12.845a6.136,6.136,0,0,0-6.26-6.588,6.5,6.5,0,0,0-6.585,6.589Z" transform="translate(266.621 -0.671)"/>
      </g>
    </g>
  </g>
</svg>
