<svg xmlns="http://www.w3.org/2000/svg" width="43.443" height="44" viewBox="0 0 43.443 44">
  <g id="document" transform="translate(-168.121 -497)">
    <g id="document-2" data-name="document" transform="translate(183.255 503.833)">
      <path id="Path_51376" data-name="Path 51376" d="M80.527,10.889a2.544,2.544,0,0,1-2.541-2.541V0H64.993A4,4,0,0,0,61,3.993V33.175a4,4,0,0,0,3.993,3.993H85.318a4,4,0,0,0,3.993-3.993V10.889ZM66.953,26.133h5.279a1.089,1.089,0,1,1,0,2.178H66.953a1.089,1.089,0,1,1,0-2.178Zm-1.089-4.719a1.089,1.089,0,0,1,1.089-1.089h15.97a1.089,1.089,0,1,1,0,2.178H66.953A1.089,1.089,0,0,1,65.864,21.415Zm17.059-6.9a1.089,1.089,0,1,1,0,2.178H66.953a1.089,1.089,0,1,1,0-2.178Z" transform="translate(-61)" fill="#32cd32"/>
      <path id="Path_51377" data-name="Path 51377" d="M325,14.118a.363.363,0,0,0,.363.363h8.3a3.984,3.984,0,0,0-.763-1l-7-6.622a4,4,0,0,0-.9-.641v7.9Z" transform="translate(-305.836 -5.769)" fill="#32cd32"/>
    </g>
    <g id="Layer_19" data-name="Layer 19" transform="translate(168.121 497)">
      <path id="Path_51378" data-name="Path 51378" d="M27.731,2H9.359a2.3,2.3,0,0,0-2.3,2.3v.766H6.3A2.3,2.3,0,0,0,4,7.359v24.5a2.3,2.3,0,0,0,2.3,2.3H24.669a2.3,2.3,0,0,0,2.3-2.3v-.766h.766a2.3,2.3,0,0,0,2.3-2.3V4.3a2.3,2.3,0,0,0-2.3-2.3Zm-2.3,29.855a.766.766,0,0,1-.766.766H6.3a.766.766,0,0,1-.766-.766V7.359A.766.766,0,0,1,6.3,6.593H24.669a.766.766,0,0,1,.766.766ZM28.5,28.793a.766.766,0,0,1-.766.766h-.766V7.359a2.3,2.3,0,0,0-2.3-2.3H8.593V4.3a.766.766,0,0,1,.766-.766H27.731A.766.766,0,0,1,28.5,4.3ZM22.372,10.421a.766.766,0,0,1-.766.766H9.359a.766.766,0,1,1,0-1.531H21.607A.766.766,0,0,1,22.372,10.421Zm0,4.593a.766.766,0,0,1-.766.766H9.359a.766.766,0,1,1,0-1.531H21.607A.766.766,0,0,1,22.372,15.014Zm0,4.593a.766.766,0,0,1-.766.766H9.359a.766.766,0,1,1,0-1.531H21.607A.766.766,0,0,1,22.372,19.607Zm0,4.593a.766.766,0,0,1-.766.766H9.359a.766.766,0,1,1,0-1.531H21.607A.766.766,0,0,1,22.372,24.2Zm0,4.593a.766.766,0,0,1-.766.766H9.359a.766.766,0,1,1,0-1.531H21.607A.766.766,0,0,1,22.372,28.793Z" transform="translate(-4 -2)" fill="#343a40"/>
    </g>
  </g>
</svg>
