<svg xmlns="http://www.w3.org/2000/svg" width="49.869" height="37" viewBox="0 0 49.869 37">
  <g id="payment" transform="translate(-1 -9)">
    <path id="Path_1524" data-name="Path 1524" d="M43.525,35.63A10.348,10.348,0,0,1,36.16,32.58,8.75,8.75,0,0,0,29.932,30H13V47.7a2.413,2.413,0,0,0,2.413,2.413H50.8A2.413,2.413,0,0,0,53.217,47.7V35.63ZM33.109,45.283H17.826a.8.8,0,1,1,0-1.609H33.109a.8.8,0,0,1,0,1.609Z" transform="translate(-2.348 -4.109)" fill="#32cd32"/>
    <path id="Path_1525" data-name="Path 1525" d="M29.932,26.63A10.348,10.348,0,0,1,37.3,29.681a8.75,8.75,0,0,0,6.228,2.58h9.692V23.413A2.413,2.413,0,0,0,50.8,21H15.413A2.413,2.413,0,0,0,13,23.413V26.63Z" transform="translate(-2.348 -2.348)" fill="#32cd32"/>
    <g id="Group_1529" data-name="Group 1529" transform="translate(1 9)">
      <path id="Path_1526" data-name="Path 1526" d="M38.84,9H3.448a2.413,2.413,0,0,0-2.413,2.413c0,8.658-.08,8.043,0,8.043V33.935a2.413,2.413,0,0,0,2.413,2.413H38.84a2.413,2.413,0,0,0,2.413-2.413V11.413A2.413,2.413,0,0,0,38.84,9ZM3.448,10.609H38.84a.8.8,0,0,1,.8.8v2.413h-37V11.413A.8.8,0,0,1,3.448,10.609Zm36.2,8.043h-37V15.435h37Zm-.8,16.087H3.448a.8.8,0,0,1-.8-.8V20.261h37V33.935A.8.8,0,0,1,38.84,34.739Z" transform="translate(-1 -9)" fill="#343a40"/>
      <path id="Path_1527" data-name="Path 1527" d="M24.327,33H9.848a.8.8,0,1,0,0,1.609H24.327a.8.8,0,1,0,0-1.609Z" transform="translate(-2.573 -13.696)" fill="#343a40"/>
      <path id="Path_1528" data-name="Path 1528" d="M38.674,30H35.457a2.413,2.413,0,0,0-2.413,2.413v1.609a2.413,2.413,0,0,0,2.413,2.413h3.217a2.413,2.413,0,0,0,2.413-2.413V32.413A2.413,2.413,0,0,0,38.674,30Zm.8,4.022a.8.8,0,0,1-.8.8H35.457a.8.8,0,0,1-.8-.8V32.413a.8.8,0,0,1,.8-.8h3.217a.8.8,0,0,1,.8.8Z" transform="translate(-7.269 -13.109)" fill="#343a40"/>
    </g>
  </g>
</svg>
