<svg xmlns="http://www.w3.org/2000/svg" width="47.002" height="47" viewBox="0 0 47.002 47">
  <g id="personal_info" transform="translate(-1 -1)">
    <path id="Path_1513" data-name="Path 1513" d="M40.042,35.073A15.92,15.92,0,0,0,21,50.684a5.484,5.484,0,0,0,6.559,5.377,47.481,47.481,0,0,1,18.725,0,5.484,5.484,0,0,0,6.556-5.377,15.964,15.964,0,0,0-12.8-15.611Z" transform="translate(-4.838 -8.168)" fill="#32cd32"/>
    <circle id="Ellipse_38" data-name="Ellipse 38" cx="6.823" cy="6.823" r="6.823" transform="translate(25.259 11.134)" fill="#32cd32"/>
    <g id="Group_1528" data-name="Group 1528" transform="translate(1 1)">
      <path id="Path_1514" data-name="Path 1514" d="M35.114,5.549H32.84V3.274A2.274,2.274,0,0,0,30.565,1H3.274A2.274,2.274,0,0,0,1,3.274V21.468a2.274,2.274,0,0,0,2.274,2.274H5.549v2.274a2.274,2.274,0,0,0,2.274,2.274H35.114a2.274,2.274,0,0,0,2.274-2.274V7.823A2.274,2.274,0,0,0,35.114,5.549Zm-32.6,15.92V3.274a.758.758,0,0,1,.758-.758H30.565a.758.758,0,0,1,.758.758V21.468a.758.758,0,0,1-.758.758H3.274A.758.758,0,0,1,2.516,21.468Zm33.356,4.549a.758.758,0,0,1-.758.758H7.823a.758.758,0,0,1-.758-.758V23.743h23.5a2.274,2.274,0,0,0,2.274-2.274V7.065h2.274a.758.758,0,0,1,.758.758Z" transform="translate(-1 -1)" fill="#343a40"/>
      <path id="Path_1515" data-name="Path 1515" d="M11.307,17.516a3.8,3.8,0,0,1,3.79,3.79.758.758,0,1,0,1.516,0A5.307,5.307,0,1,0,6,21.307a.758.758,0,1,0,1.516,0A3.8,3.8,0,0,1,11.307,17.516Z" transform="translate(-2.21 -4.629)" fill="#343a40"/>
      <path id="Path_1516" data-name="Path 1516" d="M12.032,12.065A3.032,3.032,0,1,0,9,9.032a3.032,3.032,0,0,0,3.032,3.032Zm0-4.549a1.516,1.516,0,1,1-1.516,1.516A1.516,1.516,0,0,1,12.032,7.516Z" transform="translate(-2.935 -2.21)" fill="#343a40"/>
      <path id="Path_1517" data-name="Path 1517" d="M23.758,9.516h9.855a.758.758,0,0,0,0-1.516H23.758a.758.758,0,1,0,0,1.516Z" transform="translate(-6.322 -2.693)" fill="#343a40"/>
      <path id="Path_1518" data-name="Path 1518" d="M23.758,15.516h9.855a.758.758,0,0,0,0-1.516H23.758a.758.758,0,1,0,0,1.516Z" transform="translate(-6.322 -4.145)" fill="#343a40"/>
      <path id="Path_1519" data-name="Path 1519" d="M23.758,21.516h9.855a.758.758,0,0,0,0-1.516H23.758a.758.758,0,1,0,0,1.516Z" transform="translate(-6.322 -5.596)" fill="#343a40"/>
    </g>
  </g>
</svg>
