<svg id="google_play_white" xmlns="http://www.w3.org/2000/svg" xmlns:xlink="http://www.w3.org/1999/xlink" width="675.836" height="200.572" viewBox="0 0 675.836 200.572">
  <defs>
    <linearGradient id="linear-gradient" x1="0.849" y1="0.31" x2="0.361" y2="0.799" gradientUnits="objectBoundingBox">
      <stop offset="0" stop-color="#00a0ff"/>
      <stop offset="0.007" stop-color="#00a1ff"/>
      <stop offset="0.26" stop-color="#00beff"/>
      <stop offset="0.512" stop-color="#00d2ff"/>
      <stop offset="0.76" stop-color="#00dfff"/>
      <stop offset="1" stop-color="#00e3ff"/>
    </linearGradient>
    <linearGradient id="linear-gradient-2" x1="0.97" y1="0.436" x2="-1.177" y2="0.436" gradientUnits="objectBoundingBox">
      <stop offset="0" stop-color="#ffe000"/>
      <stop offset="0.409" stop-color="#ffbd00"/>
      <stop offset="0.775" stop-color="orange"/>
      <stop offset="1" stop-color="#ff9c00"/>
    </linearGradient>
    <linearGradient id="linear-gradient-3" x1="0.761" y1="0.213" x2="-0.443" y2="1.411" gradientUnits="objectBoundingBox">
      <stop offset="0" stop-color="#ff3a44"/>
      <stop offset="1" stop-color="#c31162"/>
    </linearGradient>
    <linearGradient id="linear-gradient-4" x1="-0.17" y1="-0.275" x2="0.367" y2="0.26" gradientUnits="objectBoundingBox">
      <stop offset="0" stop-color="#32a071"/>
      <stop offset="0.068" stop-color="#2da771"/>
      <stop offset="0.476" stop-color="#15cf74"/>
      <stop offset="0.801" stop-color="#06e775"/>
      <stop offset="1" stop-color="#00f076"/>
    </linearGradient>
    <linearGradient id="linear-gradient-5" x1="0.624" y1="0.038" x2="-0.364" y2="1.027" gradientUnits="objectBoundingBox">
      <stop offset="0" stop-color="#cc2e36"/>
      <stop offset="1" stop-color="#9c0e4e"/>
    </linearGradient>
    <linearGradient id="linear-gradient-6" x1="5.233" y1="-7.998" x2="-1.121" y2="-1.634" gradientUnits="objectBoundingBox">
      <stop offset="0" stop-color="#008de0"/>
      <stop offset="0.007" stop-color="#008de0"/>
      <stop offset="0.26" stop-color="#00a7e0"/>
      <stop offset="0.512" stop-color="#00b8e0"/>
      <stop offset="0.76" stop-color="#00c4e0"/>
      <stop offset="1" stop-color="#00c7e0"/>
    </linearGradient>
    <linearGradient id="linear-gradient-7" x1="0.943" y1="-0.195" x2="-2.414" y2="-0.195" gradientUnits="objectBoundingBox">
      <stop offset="0" stop-color="#e0c500"/>
      <stop offset="0.409" stop-color="#e0a600"/>
      <stop offset="0.775" stop-color="#e09100"/>
      <stop offset="1" stop-color="#e08900"/>
    </linearGradient>
    <linearGradient id="linear-gradient-8" x1="0.944" y1="0.999" x2="-2.414" y2="0.999" gradientUnits="objectBoundingBox">
      <stop offset="0" stop-color="#ffe840"/>
      <stop offset="0.409" stop-color="#ffce40"/>
      <stop offset="0.775" stop-color="#ffbc40"/>
      <stop offset="1" stop-color="#ffb540"/>
    </linearGradient>
    <linearGradient id="linear-gradient-9" x1="5.219" y1="0.865" x2="-1.113" y2="6.933" gradientUnits="objectBoundingBox">
      <stop offset="0" stop-color="#40b8ff"/>
      <stop offset="0.007" stop-color="#40b9ff"/>
      <stop offset="0.26" stop-color="#40ceff"/>
      <stop offset="0.512" stop-color="#40ddff"/>
      <stop offset="0.76" stop-color="#40e7ff"/>
      <stop offset="1" stop-color="#40eaff"/>
    </linearGradient>
    <linearGradient id="linear-gradient-10" x1="-0.137" y1="-0.184" x2="0.304" y2="0.257" gradientUnits="objectBoundingBox">
      <stop offset="0" stop-color="#65b895"/>
      <stop offset="0.068" stop-color="#62bd95"/>
      <stop offset="0.476" stop-color="#50db97"/>
      <stop offset="0.801" stop-color="#44ed98"/>
      <stop offset="1" stop-color="#40f498"/>
    </linearGradient>
  </defs>
  <path id="Path_47" data-name="Path 47" d="M650.8,200.572H25.031A25.125,25.125,0,0,1,0,175.5V25.072A25.125,25.125,0,0,1,25.031,0H650.8a25.125,25.125,0,0,1,25.031,25.072V175.5A25.125,25.125,0,0,1,650.8,200.572" fill="#fff"/>
  <path id="Path_49" data-name="Path 49" d="M948.995,169.7q0,6.3-3.73,10.042A14.554,14.554,0,0,1,934.23,184.2a15.716,15.716,0,1,1,0-31.432,15.47,15.47,0,0,1,6.166,1.262,12.387,12.387,0,0,1,4.7,3.361l-2.64,2.646a10.133,10.133,0,0,0-8.223-3.569,12.017,12.017,0,1,0,8.39,20.674,9.47,9.47,0,0,0,2.519-6.094H934.23v-3.614h14.556a12.858,12.858,0,0,1,.209,2.27" transform="translate(-711.609 -118.338)"/>
  <path id="Path_50" data-name="Path 50" d="M947.275,167.978h-.5c0,4.105-1.2,7.294-3.583,9.688l-.005,0,0,0a14.051,14.051,0,0,1-10.674,4.3,15.214,15.214,0,1,1,0-30.429,14.979,14.979,0,0,1,5.969,1.221,11.9,11.9,0,0,1,4.512,3.224l.383-.324-.354-.354-2.64,2.648.354.353.386-.321a10.65,10.65,0,0,0-8.609-3.749,12.518,12.518,0,1,0,8.743,21.53,9.984,9.984,0,0,0,2.664-6.405l.047-.544H933.011v-2.611h14.055v-.5l-.493.088a12.248,12.248,0,0,1,.2,2.182h1a13.273,13.273,0,0,0-.217-2.36l-.074-.412H932.01v4.617h11.409v-.5l-.5-.043a8.985,8.985,0,0,1-2.374,5.783,11.449,11.449,0,0,1-15.891.013,12.107,12.107,0,0,1,0-16.633,10.9,10.9,0,0,1,7.855-3.2,9.632,9.632,0,0,1,7.84,3.391l.352.419,3.025-3.034.324-.325-.3-.351a12.864,12.864,0,0,0-4.883-3.5,15.967,15.967,0,0,0-6.364-1.3,16.217,16.217,0,1,0,0,32.435,15.067,15.067,0,0,0,11.4-4.607l-.362-.347.354.355c2.593-2.6,3.88-6.1,3.876-10.4h-.5M970.35,155.41H956.671v9.539h12.336v3.615H956.671V178.1H970.35v3.7H952.815V151.714H970.35v3.7" transform="translate(-709.889 -116.614)"/>
  <path id="Path_51" data-name="Path 51" d="M1093.783,157.727v-.5H1079.6v10.542h12.336v2.611H1079.6v10.542h13.679v2.693h-16.534V154.533h16.534v3.195h.5v0h.5v-4.2h-18.536v31.089h18.536v-4.7H1080.6v-8.536h12.336v-4.618H1080.6v-8.536h13.679v-.5h-.5m16.276,26.39H1106.2v-26.39h-8.389v-3.7h20.641v3.7h-8.389v26.39" transform="translate(-833.323 -118.931)"/>
  <path id="Path_52" data-name="Path 52" d="M1184.175,184.117v-.5h-3.362v-26.39h-8.389v-2.693h19.64v2.693h-8.389v26.891h.5v0h.5V158.229h8.389v-4.7h-21.642v4.7h8.389v26.39h4.864v-.5h-.5m23.324,0V154.031h3.858v30.086H1207.5" transform="translate(-907.438 -118.931)"/>
  <path id="Path_53" data-name="Path 53" d="M1329.79,184.117h.5V154.533h2.857v29.083h-3.358v.5h0v.5h4.359V153.53h-4.859v31.089h.5v-.5m20.979,0h-3.862v-26.39h-8.389v-3.7h20.641v3.7h-8.39v26.39" transform="translate(-1029.728 -118.931)"/>
  <path id="Path_54" data-name="Path 54" d="M1380.767,183.524v-.5h-3.362v-26.39h-8.389V153.94h19.639v2.693h-8.389v26.891h.5v0h.5V157.635h8.389v-4.7h-21.642v4.7h8.389v26.39h4.864v-.5h-.5m28.289-6.406a11.538,11.538,0,0,0,16.319,0,12.834,12.834,0,0,0,0-17.272,11.537,11.537,0,0,0-16.319,0,12.852,12.852,0,0,0,0,17.272Zm19.174,2.519a15.575,15.575,0,0,1-22.023,0,16.271,16.271,0,0,1,0-22.31,15.524,15.524,0,0,1,22,.02,16.22,16.22,0,0,1,.019,22.29Z" transform="translate(-1059.727 -118.338)"/>
  <path id="Path_55" data-name="Path 55" d="M1523.4,175.393l-.356.352a12.037,12.037,0,0,0,17.031,0,13.335,13.335,0,0,0,0-17.977,12.037,12.037,0,0,0-17.031,0,13.352,13.352,0,0,0,0,17.977l.356-.352.356-.353a12.351,12.351,0,0,1,0-16.567,11.038,11.038,0,0,1,15.607,0,12.34,12.34,0,0,1,0,16.567,11.038,11.038,0,0,1-15.607,0Zm19.174,2.519-.358-.348a15.082,15.082,0,0,1-21.308,0l-.013-.016.013.016a15.776,15.776,0,0,1,0-21.613,15.027,15.027,0,0,1,21.288.021,15.721,15.721,0,0,1,.02,21.591l.358.348.36.348a16.722,16.722,0,0,0-.02-22.987,16.023,16.023,0,0,0-22.723-.02v0a16.778,16.778,0,0,0,0,23.011l.014.014-.014-.016a16.075,16.075,0,0,0,22.743,0Zm9.842,3.888V151.714h4.7l14.6,23.4h.166l-.166-5.8V151.714h3.862V181.8h-4.029l-15.273-24.539h-.166l.166,5.8s.964,14.054,0,18.739-3.856,0-3.856,0" transform="translate(-1174.075 -116.614)"/>
  <path id="Path_56" data-name="Path 56" d="M1084.618,184.117h.5V154.533h3.919l14.6,23.4h.958l-.18-6.307v-17.1h2.861v29.083h-3.25l-15.273-24.539h-.958l.18,6.309v18.229h-3.356v.5h0v.5h4.357V165.37l-.166-5.806-.5.014v.5h.166v-.5l-.425.267,15.42,24.774h4.807V153.53h-4.863v18.114l.166,5.806.5-.014v-.5h-.166v.5l.425-.266-14.745-23.64h-5.475v31.089h.5v-.5m157,85.243h9.341V206.675h-9.342Zm84.139-40.1-10.708,27.177h-.32l-11.114-27.177h-10.062l16.666,37.985-9.5,21.129h9.747l25.682-59.114Zm-52.975,32.984c-3.064,0-7.329-1.532-7.329-5.324,0-4.838,5.317-6.693,9.9-6.693a16.6,16.6,0,0,1,8.536,2.1A11.331,11.331,0,0,1,1272.779,262.24Zm1.127-34.356c-6.764,0-13.767,2.985-16.666,9.6l8.29,3.467c1.772-3.467,5.071-4.6,8.536-4.6,4.831,0,9.742,2.9,9.822,8.066v.645a20.631,20.631,0,0,0-9.742-2.419c-8.936,0-18.037,4.918-18.037,14.112,0,8.387,7.329,13.791,15.539,13.791,6.283,0,9.742-2.823,11.92-6.129h.32v4.838h9.016V245.223c0-11.127-8.29-17.338-19-17.338Zm-57.731,9h-13.286V215.4h13.286a10.745,10.745,0,1,1,0,21.487Zm-.24-30.211h-22.383V269.36h9.336V245.611h13.047c10.353,0,20.53-7.508,20.53-19.468s-10.177-19.467-20.53-19.467Zm-122.056,55.576c-6.453,0-11.857-5.412-11.857-12.845,0-7.511,5.4-13.006,11.857-13.006,6.371,0,11.372,5.494,11.372,13.006,0,7.433-5,12.845-11.371,12.845Zm10.726-29.486h-.323A14.747,14.747,0,0,0,1093.07,228c-10.646,0-20.4,9.37-20.4,21.406,0,11.956,9.758,21.246,20.4,21.246a14.512,14.512,0,0,0,11.211-4.846h.323v3.069c0,8.16-4.355,12.522-11.371,12.522-5.726,0-9.275-4.121-10.728-7.594l-8.144,3.393a20.293,20.293,0,0,0,18.873,12.6c10.968,0,20.244-6.464,20.244-22.216V229.293H1104.6Zm15.324,36.594h9.356V206.673h-9.356Zm23.148-20.68a11.688,11.688,0,0,1,11.129-12.44c3.713,0,6.856,1.857,7.9,4.525Zm29.035-7.108C1170.337,236.8,1164.93,228,1153.881,228c-10.968,0-20.081,8.643-20.081,21.326,0,11.956,9.033,21.326,21.13,21.326a21.174,21.174,0,0,0,17.745-9.451l-7.259-4.848c-2.418,3.555-5.727,5.9-10.486,5.9s-8.145-2.182-10.323-6.462l28.469-11.8Zm-226.821-7.028v9.047H966.9c-.645,5.089-2.339,8.8-4.92,11.39-3.144,3.152-8.064,6.625-16.694,6.625a24.076,24.076,0,0,1,0-48.147,23.016,23.016,0,0,1,16.291,6.463l6.371-6.381a31.478,31.478,0,0,0-22.662-9.129c-18.228,0-33.552,14.864-33.552,33.121s15.324,33.12,33.552,33.12c9.84,0,17.259-3.23,23.065-9.29,5.969-5.978,7.824-14.379,7.824-21.164a29.387,29.387,0,0,0-.485-5.655Zm55.463,27.708c-6.453,0-12.019-5.332-12.019-12.925,0-7.674,5.565-12.925,12.019-12.925s12.016,5.251,12.016,12.925C1012.768,256.92,1007.2,262.252,1000.751,262.252Zm0-34.252a21.326,21.326,0,1,0,21.372,21.326A21,21,0,0,0,1000.751,228Zm46.624,34.252c-6.451,0-12.017-5.332-12.017-12.925,0-7.674,5.566-12.925,12.017-12.925s12.017,5.251,12.017,12.925c0,7.594-5.565,12.925-12.017,12.925Zm0-34.252a21.326,21.326,0,1,0,21.373,21.326A21,21,0,0,0,1047.375,228Z" transform="translate(-706.273 -118.931)"/>
  <path id="Path_57" data-name="Path 57" d="M224.224,163.762c-1.68,1.518-2.683,4.051-2.683,7.412V280.6c0,3.1.86,5.5,2.317,7.045l.372.357v0a6.43,6.43,0,0,0,4.424,1.63,11.517,11.517,0,0,0,5.608-1.682L306.928,246.6l24.96-14.207c3.17-1.8,4.95-4.131,5.247-6.5v-.01c-.3-2.376-2.077-4.7-5.247-6.5l-24.962-14.2L234.262,163.82a11.538,11.538,0,0,0-5.619-1.686,6.438,6.438,0,0,0-4.419,1.628Z" transform="translate(-171.616 -125.596)" fill="#00c1ff"/>
  <path id="Path_58" data-name="Path 58" d="M2.8-427.321l-.372-.357C.975-429.221.115-431.619.115-434.723V-544.154c0-3.361,1-5.894,2.683-7.412l62.026,62.125L2.8-427.321" transform="translate(49.81 589.731)" fill="url(#linear-gradient)"/>
  <path id="Path_59" data-name="Path 59" d="M21.364-143.14.686-163.855l20.676-20.712,24.962,14.2c3.17,1.8,4.949,4.129,5.247,6.505v.009c-.3,2.37-2.077,4.7-5.247,6.5l-24.96,14.206" transform="translate(113.948 264.145)" fill="url(#linear-gradient-2)"/>
  <path id="Path_60" data-name="Path 60" d="M4.863-219.265a6.431,6.431,0,0,1-4.423-1.63v0l62.02-62.12L83.138-262.3,10.472-220.947a11.515,11.515,0,0,1-5.608,1.682" transform="translate(52.174 383.307)" fill="url(#linear-gradient-3)"/>
  <path id="Path_61" data-name="Path 61" d="M62.216-219.853.19-281.977A6.439,6.439,0,0,1,4.609-283.6a11.535,11.535,0,0,1,5.619,1.686l72.664,41.354L62.216-219.853" transform="translate(52.418 320.143)" fill="url(#linear-gradient-4)"/>
  <path id="Path_62" data-name="Path 62" d="M5.587-151.323a6.446,6.446,0,0,1-4.426-1.632l0,0-.016-.014-.322-.315-.032-.033.372-.373a6.429,6.429,0,0,0,4.424,1.63,11.515,11.515,0,0,0,5.608-1.682L83.86-195.094l.466.466-.471.268-72.66,41.352a11.952,11.952,0,0,1-5.149,1.673q-.229.011-.457.011" transform="translate(51.453 316.099)" fill="url(#linear-gradient-5)"/>
  <path id="Path_63" data-name="Path 63" d="M2.432-27.529C.975-29.073.115-31.468.115-34.574v-.731c0,3.1.86,5.5,2.317,7.045L2.8-27.9l-.372.374" transform="translate(49.81 190.313)" fill="url(#linear-gradient-6)"/>
  <path id="Path_64" data-name="Path 64" d="M1.108-72.953.642-73.42,25.6-87.626c3.17-1.8,4.95-4.131,5.247-6.5a6.217,6.217,0,0,1-.579,2.586A10.75,10.75,0,0,1,25.6-86.893L1.108-72.953" transform="translate(134.67 194.424)" fill="url(#linear-gradient-7)"/>
  <path id="Path_65" data-name="Path 65" d="M30.842-73.508c-.3-2.376-2.077-4.7-5.247-6.505L.633-94.218l.466-.466h0L25.6-80.744c3.495,1.99,5.245,4.613,5.247,7.236" transform="translate(134.677 173.796)" fill="url(#linear-gradient-8)"/>
  <path id="Path_66" data-name="Path 66" d="M.115-26.978v-.766c0-.276.007-.546.022-.809v-.012a.035.035,0,0,1,0-.011v-.03a9.562,9.562,0,0,1,2.294-6.152l.366.368C1.118-32.872.115-30.339.115-26.978" transform="translate(49.81 72.555)" fill="url(#linear-gradient-9)"/>
  <path id="Path_67" data-name="Path 67" d="M83.857-151.13,11.193-192.484a11.536,11.536,0,0,0-5.618-1.686,6.439,6.439,0,0,0-4.419,1.628l-.366-.368q.171-.182.356-.35l.014-.012a6.435,6.435,0,0,1,4.379-1.63h.037a11.533,11.533,0,0,1,5.618,1.687L84.324-151.6l0,0-.466.466" transform="translate(51.453 230.708)" fill="url(#linear-gradient-10)"/>
</svg>
